HIERARCHY
ROOT root
{
	OFFSET	0	13.1	24.9
	CHANNELS 6  Xposition Yposition Zposition Xrotation Yrotation Zrotation
	JOINT spine_1
	{
		OFFSET	0	9.99999	0
		CHANNELS 3  Xrotation Yrotation Zrotation
		JOINT spine_2
		{
			OFFSET	0	112	-10
			CHANNELS 3  Xrotation Yrotation Zrotation
			JOINT spine_3
			{
				OFFSET	0	206.5	19.3
				CHANNELS 3  Xrotation Yrotation Zrotation
				JOINT spine_4
				{
					OFFSET	0	110.4	14.6
					CHANNELS 3  Xrotation Yrotation Zrotation
					JOINT neck_1
					{
						OFFSET	0	71.8	-50.3
						CHANNELS 3  Xrotation Yrotation Zrotation
						JOINT neck_2
						{
							OFFSET	0	86.2	-25.8
							CHANNELS 3  Xrotation Yrotation Zrotation
							JOINT head_ee
							{
								OFFSET	0	179.8	-8.7
								CHANNELS 3  Xrotation Yrotation Zrotation
								End Site
								{
									OFFSET	1	0	0
								}
							}
						}
					}
					JOINT left_clavicle
					{
						OFFSET	-43.2	22.4	-70.8
						CHANNELS 3  Xrotation Yrotation Zrotation
						JOINT left_shoulder
						{
							OFFSET	-93.9	-5.79999	48.7
							CHANNELS 3  Xrotation Yrotation Zrotation
							JOINT left_elbow
							{
								OFFSET	-291.4	-30.8	15.2
								CHANNELS 3  Xrotation Yrotation Zrotation
								JOINT left_lowarm_twist
								{
									OFFSET	-110.7	-3.89999	13.6
									CHANNELS 3  Xrotation Yrotation Zrotation
									JOINT left_hand
									{
										OFFSET	-110.7	-3.89999	13.6
										CHANNELS 3  Xrotation Yrotation Zrotation
										JOINT left_ee
										{
											OFFSET	-80.8	-5.10001	12.1
											CHANNELS 3  Xrotation Yrotation Zrotation
											End Site
											{
												OFFSET	1	0	0
											}
										}
									}
								}
							}
						}
					}
					JOINT right_clavicle
					{
						OFFSET	43.2	22.4	-70.8
						CHANNELS 3  Xrotation Yrotation Zrotation
						JOINT right_shoulder
						{
							OFFSET	93.9	-5.79999	48.7
							CHANNELS 3  Xrotation Yrotation Zrotation
							JOINT right_elbow
							{
								OFFSET	291.4	-30.8	15.2
								CHANNELS 3  Xrotation Yrotation Zrotation
								JOINT right_lowarm_twist
								{
									OFFSET	110.7	-3.89999	13.6
									CHANNELS 3  Xrotation Yrotation Zrotation
									JOINT right_hand
									{
										OFFSET	110.7	-3.89999	13.6
										CHANNELS 3  Xrotation Yrotation Zrotation
										JOINT right_ee
										{
											OFFSET	80.8	-5.10001	12.1
											CHANNELS 3  Xrotation Yrotation Zrotation
											End Site
											{
												OFFSET	1	0	0
											}
										}
									}
								}
							}
						}
					}
				}
			}
		}
	}
	JOINT left_hip
	{
		OFFSET	-82.8	-127.5	0.300001
		CHANNELS 3  Xrotation Yrotation Zrotation
		JOINT left_knee
		{
			OFFSET	-28.2	-396.7	2.2
			CHANNELS 3  Xrotation Yrotation Zrotation
			JOINT left_ankle
			{
				OFFSET	-11.7	-411.3	35.4
				CHANNELS 3  Xrotation Yrotation Zrotation
				JOINT left_toes
				{
					OFFSET	0	-60	-88.6
					CHANNELS 3  Xrotation Yrotation Zrotation
					JOINT left_foot_ee
					{
						OFFSET	-22.5	-16.5	-42.2
						CHANNELS 3  Xrotation Yrotation Zrotation
						End Site
						{
							OFFSET	1	0	0
						}
					}
				}
			}
		}
	}
	JOINT right_hip
	{
		OFFSET	82.8	-127.5	0.300001
		CHANNELS 3  Xrotation Yrotation Zrotation
		JOINT right_knee
		{
			OFFSET	28.2	-396.7	2.2
			CHANNELS 3  Xrotation Yrotation Zrotation
			JOINT right_ankle
			{
				OFFSET	11.7	-411.3	35.4
				CHANNELS 3  Xrotation Yrotation Zrotation
				JOINT right_toes
				{
					OFFSET	0	-60	-88.6
					CHANNELS 3  Xrotation Yrotation Zrotation
					JOINT right_foot_ee
					{
						OFFSET	22.5	-16.5	-42.2
						CHANNELS 3  Xrotation Yrotation Zrotation
						End Site
						{
							OFFSET	1	0	0
						}
					}
				}
			}
		}
	}
}
MOTION
Frames: 6
Frame Time: 0.02
2800.94 716.97 -1473.77 3.54953076002 56.3947868586 -7.33758261431 -0.753452 0.40522 2.64787 -0.749582 0.23597 2.66827 -0.735748 -0.364389 2.65379 -0.745571 0.0591454 2.67802 -3.35123 20.3232 -2.47838 -2.60526 39.0182 0.31595 -0.0 0.0 -0.0 1.22943 12.7233 3.54065 7.3641 -8.10926 47.3285 4.93007 -67.7084 3.30827 6.4305 0.181778 -0.800869 -0.264549 3.67187 -0.206915 -0.0 0.0 -0.0 11.2909 21.8251 -22.1736 -26.6959 27.3422 -61.633 0.658038 18.0546 -0.104546 -49.2313 3.98198 -4.6421 -3.99292 -20.331 15.683 0.0 0.0 0.0 -16.028 -1.35083 15.6983 -11.1828 0.296512 1.68785 27.6187 22.1311 -3.76881 4.83559 -0.0 -0.0 -0.0 0.0 -0.0 32.765 32.868 -15.0752 3.1154 0.140772 0.457241 -24.2943 -9.22311 -3.6543 1.31878 -0.0 -0.0 0.0 0.0 0.0 
2742.60694606 711.764 -1489.35123286 4.68245792648 58.3939229607 -10.024771666 -1.10668 0.565525 3.2362 -1.10093 0.358564 3.26559 -1.07555 -0.397308 3.2611 -1.09037 0.122421 3.28291 0.369337 18.1632 -3.62767 1.58902 35.3141 -2.42783 -0.0 0.0 -0.0 1.10715 13.4813 3.40499 4.20546 -7.87023 48.4787 4.47775 -65.7116 2.89274 4.32591 0.132204 -0.53661 0.692046 7.44224 7.61566 -0.0 0.0 -0.0 11.7591 23.2246 -23.1172 -29.5135 31.8398 -59.7571 0.983162 25.967 -0.226687 -52.0314 4.31167 -4.78491 -3.03506 -10.3823 15.2949 0.0 0.0 0.0 -16.7099 -0.629374 15.2682 -18.4911 0.310543 2.80833 26.6993 18.1383 -3.59895 7.11012 -0.0 -0.0 -0.0 0.0 -0.0 32.7012 33.492 -13.7758 -8.8755 -0.262425 -1.33548 -20.872 -10.9013 -3.14089 -6.88558 0.0 0.0 0.0 0.0 0.0 
2743.04207096 711.764 -1490.89745786 4.49013151461 56.874475323 -9.79709158789 -1.10668 0.565525 3.2362 -1.10093 0.358564 3.26559 -1.07555 -0.397308 3.2611 -1.09037 0.122421 3.28291 0.369337 18.1632 -3.62767 1.58902 35.3141 -2.42783 -0.0 0.0 -0.0 1.10715 13.4813 3.40499 4.20546 -7.87023 48.4787 4.47775 -65.7116 2.89274 4.32591 0.132204 -0.53661 0.692046 7.44224 7.61566 -0.0 0.0 -0.0 11.7591 23.2246 -23.1172 -29.5135 31.8398 -59.7571 0.983162 25.967 -0.226687 -52.0314 4.31167 -4.78491 -3.03506 -10.3823 15.2949 0.0 0.0 0.0 -16.7099 -0.629374 15.2682 -18.4911 0.310543 2.80833 26.6993 18.1383 -3.59895 7.11012 -0.0 -0.0 -0.0 0.0 -0.0 32.7012 33.492 -13.7758 -8.8755 -0.262425 -1.33548 -20.872 -10.9013 -3.14089 -6.88558 0.0 0.0 0.0 0.0 0.0 
2743.33586839 711.764 -1491.86099283 4.37889237433 55.9214191534 -9.66354003455 -1.10668 0.565525 3.2362 -1.10093 0.358564 3.26559 -1.07555 -0.397308 3.2611 -1.09037 0.122421 3.28291 0.369337 18.1632 -3.62767 1.58902 35.3141 -2.42783 -0.0 0.0 -0.0 1.10715 13.4813 3.40499 4.20546 -7.87023 48.4787 4.47775 -65.7116 2.89274 4.32591 0.132204 -0.53661 0.692046 7.44224 7.61566 -0.0 0.0 -0.0 11.7591 23.2246 -23.1172 -29.5135 31.8398 -59.7571 0.983162 25.967 -0.226687 -52.0314 4.31167 -4.78491 -3.03506 -10.3823 15.2949 0.0 0.0 0.0 -16.7099 -0.629374 15.2682 -18.4911 0.310543 2.80833 26.6993 18.1383 -3.59895 7.11012 -0.0 -0.0 -0.0 0.0 -0.0 32.7012 33.492 -13.7758 -8.8755 -0.262425 -1.33548 -20.872 -10.9013 -3.14089 -6.88558 0.0 0.0 0.0 0.0 0.0 
2686.92017145 724.801 -1507.63889572 5.21962919001 58.8973327028 -11.7855009455 -1.11279 0.827473 3.94876 -1.1043 0.574732 3.99331 -1.05658 -0.351668 4.01906 -1.079 0.286952 4.02419 1.64523 16.0097 -5.91079 3.01404 33.1237 -5.49944 -0.0 0.0 -0.0 0.773193 14.3721 2.94296 -0.542087 -7.6277 49.998 3.20845 -57.8099 1.77184 3.45969 0.108985 -0.428396 1.15948 9.46219 11.4547 -0.0 0.0 -0.0 12.7128 25.7427 -25.0445 -28.8354 33.9586 -59.2123 0.990105 26.126 -0.229736 -54.9212 4.65875 -4.91521 -2.65241 -6.88374 14.5658 0.0 0.0 0.0 -17.0344 2.64434 14.0384 -21.0173 0.282159 3.19488 22.458 14.0056 -3.05408 7.06182 -0.0 -0.0 -0.0 0.0 -0.0 27.3139 35.5856 -10.7032 -7.6431 -0.238412 -1.14789 -17.0166 -6.97566 -2.55569 -10.1218 0.0 0.0 0.0 0.0 0.0 
2687.85775955 724.801 -1510.64858857 5.00194042965 57.3848193528 -11.5292230664 -1.11279 0.827473 3.94876 -1.1043 0.574732 3.99331 -1.05658 -0.351668 4.01906 -1.079 0.286952 4.02419 1.64523 16.0097 -5.91079 3.01404 33.1237 -5.49944 -0.0 0.0 -0.0 0.773193 14.3721 2.94296 -0.542087 -7.6277 49.998 3.20845 -57.8099 1.77184 3.45969 0.108985 -0.428396 1.15948 9.46219 11.4547 -0.0 0.0 -0.0 12.7128 25.7427 -25.0445 -28.8354 33.9586 -59.2123 0.990105 26.126 -0.229736 -54.9212 4.65875 -4.91521 -2.65241 -6.88374 14.5658 0.0 0.0 0.0 -17.0344 2.64434 14.0384 -21.0173 0.282159 3.19488 22.458 14.0056 -3.05408 7.06182 -0.0 -0.0 -0.0 0.0 -0.0 27.3139 35.5856 -10.7032 -7.6431 -0.238412 -1.14789 -17.0166 -6.97566 -2.55569 -10.1218 0.0 0.0 0.0 0.0 0.0 
